<?xml version="1.0" encoding="utf-8"?>
<!-- Generator: Adobe Illustrator 23.0.3, SVG Export Plug-In . SVG Version: 6.00 Build 0)  -->
<svg version="1.1" id="Layer_1" xmlns="http://www.w3.org/2000/svg" xmlns:xlink="http://www.w3.org/1999/xlink" x="0px" y="0px"
	 viewBox="0 0 24 24" style="enable-background:new 0 0 24 24;" xml:space="preserve">
<style type="text/css">
	.st0{fill:url(#SVGID_1_);}
	.st1{fill:url(#SVGID_2_);}
	.st2{fill:url(#SVGID_3_);}
	.st3{fill:url(#SVGID_4_);}
	.st4{fill:url(#SVGID_5_);}
	.st5{fill:url(#SVGID_6_);}
	.st6{fill:url(#SVGID_7_);}
	.st7{fill:url(#SVGID_8_);}
	.st8{fill:url(#SVGID_9_);}
	.st9{fill:url(#SVGID_10_);}
	.st10{fill:url(#SVGID_11_);}
	.st11{fill:url(#SVGID_12_);}
	.st12{fill:url(#SVGID_13_);}
	.st13{fill:url(#SVGID_14_);}
	.st14{fill:url(#SVGID_15_);}
	.st15{fill:url(#SVGID_16_);}
	.st16{fill:url(#SVGID_17_);}
	.st17{fill:url(#SVGID_18_);}
	.st18{fill:url(#SVGID_19_);}
	.st19{fill:url(#SVGID_20_);}
</style>
<linearGradient id="SVGID_1_" gradientUnits="userSpaceOnUse" x1="1.6221" y1="13.2258" x2="22.6221" y2="13.2258">
	<stop  offset="0" style="stop-color:#1245C6"/>
	<stop  offset="1" style="stop-color:#9909B7"/>
</linearGradient>
<path class="st0" d="M18.4,14.8c0-0.4-0.1-0.7-0.4-1l-7.9-7.9C9.8,5.6,9.4,5.3,8.9,5.1C8.5,4.9,8,4.8,7.6,4.8H3C2.7,4.8,2.3,5,2,5.3
	c-0.3,0.3-0.4,0.6-0.4,1v4.6c0,0.4,0.1,0.8,0.3,1.3c0.2,0.5,0.4,0.8,0.7,1.1l7.9,7.9c0.3,0.3,0.6,0.4,1,0.4c0.4,0,0.7-0.1,1-0.4
	l5.4-5.4C18.2,15.5,18.4,15.1,18.4,14.8z M6.2,9.4c-0.3,0.3-0.6,0.4-1,0.4c-0.4,0-0.7-0.1-1-0.4c-0.3-0.3-0.4-0.6-0.4-1
	c0-0.4,0.1-0.7,0.4-1C4.4,7.1,4.8,7,5.2,7c0.4,0,0.7,0.1,1,0.4c0.3,0.3,0.4,0.6,0.4,1C6.6,8.8,6.4,9.1,6.2,9.4z M22.2,13.8l-7.9-7.9
	c-0.3-0.3-0.7-0.5-1.1-0.7c-0.5-0.2-0.9-0.3-1.3-0.3H9.4c0.4,0,0.8,0.1,1.3,0.3c0.5,0.2,0.8,0.4,1.1,0.7l7.9,7.9
	c0.3,0.3,0.4,0.6,0.4,1c0,0.4-0.1,0.7-0.4,1L14.5,21c0.2,0.2,0.4,0.4,0.6,0.5c0.2,0.1,0.4,0.2,0.7,0.2c0.4,0,0.7-0.1,1-0.4l5.4-5.4
	c0.3-0.3,0.4-0.6,0.4-1C22.6,14.4,22.5,14,22.2,13.8z"/>
</svg>
